<svg xmlns="http://www.w3.org/2000/svg" viewBox="0 0 512 512"><path d="M480 211.391C480 82.938 379.781.125 256.094 0h-.219C132.219.125 32 82.938 32 211.391 32 373.984 216.938 511.547 255.875 512h.219C295.031 511.547 480 373.984 480 211.391z" fill="#a0d468"/><g fill="#fff"><path d="M303.656 298.672a114.01 114.01 0 01-15.969-1.141 120.26 120.26 0 01-10.031-1.875 113.52 113.52 0 01.938-22.562c3.844-26.984 17.312-51.625 37.938-69.375 20.438-17.594 46.469-27.281 73.281-27.281 5.281 0 10.656.375 15.969 1.125 3.344.484 6.688 1.109 10 1.891.438 7.5.125 15.062-.938 22.547a112.202 112.202 0 01-37.906 69.375c-20.438 17.593-46.469 27.296-73.282 27.296zM208.312 298.672c-26.812 0-52.812-9.703-73.25-27.297-20.625-17.75-34.094-42.391-37.938-69.375a113.57 113.57 0 01-.938-22.547 114.856 114.856 0 0110.031-1.891 113.98 113.98 0 0115.969-1.125c26.812 0 52.812 9.688 73.25 27.281 20.625 17.75 34.094 42.391 37.938 69.375a113.673 113.673 0 01.938 22.562 121.95 121.95 0 01-10 1.875 114.625 114.625 0 01-16 1.142z"/></g><g fill="#8cc152"><path d="M425.719 171.078A124.29 124.29 0 00407.281 167a125.253 125.253 0 00-17.469-1.234c-60.344 0-113.031 44.375-121.781 105.828a123.94 123.94 0 00-.312 32.422 125.575 125.575 0 0018.469 4.078 125.253 125.253 0 0017.469 1.234c60.344 0 113.031-44.375 121.75-105.828 1.562-11.016 1.624-21.891.312-32.422zM404.281 200.5a101.755 101.755 0 01-34.312 62.797C351.469 279.219 327.906 288 303.656 288c-4.812 0-9.688-.344-14.469-1.031l-1.031-.141c.094-4.094.438-8.172 1-12.234a101.643 101.643 0 0134.344-62.797c18.5-15.922 42.031-24.703 66.312-24.703 4.781 0 9.656.344 14.469 1.031.344.047.656.094 1 .156-.093 4.078-.406 8.157-1 12.219zM122.188 165.766c-5.781 0-11.594.406-17.469 1.234a124.698 124.698 0 00-18.469 4.078 123.983 123.983 0 00.312 32.422c8.75 61.453 61.438 105.828 121.75 105.828 5.781 0 11.625-.406 17.5-1.234a124.29 124.29 0 0018.438-4.078c1.312-10.531 1.25-21.406-.312-32.422-8.719-61.453-61.438-105.828-121.75-105.828zm100.624 121.203a102.767 102.767 0 01-14.5 1.031c-24.25 0-47.781-8.781-66.312-24.703a101.75 101.75 0 01-34.312-62.797 107.2 107.2 0 01-1-12.219c.344-.062.688-.109 1.031-.156a101.995 101.995 0 0114.469-1.031c24.25 0 47.812 8.781 66.312 24.703a101.75 101.75 0 0134.312 62.797c.594 4.062.906 8.141 1 12.234-.343.047-.687.094-1 .141z"/></g><path d="M277.375 384h-42.781c-5.875 0-10.656 4.781-10.656 10.672s4.781 10.656 10.656 10.656h42.781c5.906 0 10.688-4.766 10.688-10.656S283.281 384 277.375 384z" fill="#434a54"/></svg>